PathFileType	4	(X/Y/Z)	C:\Users\xlb\Desktop\20210112\20210112\bx_n_10_501.trc
DataRate	CameraRate	NumFrames	NumMarkers	Units	OrigDataRate	OrigDataStartFrame	OrigNumFrames
50.00	50.00	       4	43	mm	50.00	219	       436
Frame#	Time	Top.Head			R.Acromium			L.Acromium			Sternum			R.ASIS			L.ASIS			V.Sacral			R.Thigh.Upper			R.Thigh.Front			R.Thigh.Rear			R.Knee.Lat			R.Knee.Med			R.Shank.Upper			R.Shank.Front			R.Shank.Rear			R.Ankle.Lat			R.Midfoot.Lat			R.Toe.Lat			R.Toe.Tip			R.Toe.Med			R.Ankle.Med			R.Midfoot.Sup			R.Heel			L.Thigh.Upper			L.Thigh.Front			L.Thigh.Rear			L.Knee.Lat			L.Knee.Med			L.Shank.Upper			L.Shank.Front			L.Shank.Rear			L.Ankle.Lat			L.Midfoot.Lat			L.Toe.Lat			L.Toe.Tip			L.Toe.Med			L.Ankle.Med			L.Midfoot.Sup			L.Heel			origin1 front left			origin2 front right			origin 3 back right			origin 4 back leftt			
		X1	Y1	Z1	X2	Y2	Z2	X3	Y3	Z3	X4	Y4	Z4	X5	Y5	Z5	X6	Y6	Z6	X7	Y7	Z7	X8	Y8	Z8	X9	Y9	Z9	X10	Y10	Z10	X11	Y11	Z11	X12	Y12	Z12	X13	Y13	Z13	X14	Y14	Z14	X15	Y15	Z15	X16	Y16	Z16	X17	Y17	Z17	X18	Y18	Z18	X19	Y19	Z19	X20	Y20	Z20	X21	Y21	Z21	X22	Y22	Z22	X23	Y23	Z23	X24	Y24	Z24	X25	Y25	Z25	X26	Y26	Z26	X27	Y27	Z27	X28	Y28	Z28	X29	Y29	Z29	X30	Y30	Z30	X31	Y31	Z31	X32	Y32	Z32	X33	Y33	Z33	X34	Y34	Z34	X35	Y35	Z35	X36	Y36	Z36	X37	Y37	Z37	X38	Y38	Z38	X39	Y39	Z39	X40	Y40	Z40	X41	Y41	Z41	X42	Y42	Z42	X43	Y43	Z43	

219	4.360	-698.70258	87.92006	1849.21558	-712.45264	-84.79296	1537.15015	-722.86322	264.39594	1551.69324	-620.68274	96.75311	1358.40454	-606.74164	-10.79391	1053.63745	-631.82410	237.04930	1070.71436	-820.44995	84.75258	1056.52905	-675.30212	-75.20831	875.17883	-597.97430	-10.09191	808.07837	-695.78912	-63.59908	760.33429	-714.93652	-37.92062	616.69781	-698.57404	71.37597	574.99530	-721.20020	-34.82837	569.13440	-670.12183	14.50828	521.20770	-763.31122	-46.50705	488.57251	-758.42169	-19.07253	206.69072	-649.23639	-69.56314	160.74098	-607.69293	-77.11099	156.73730	-548.78345	-30.74543	162.47324	-597.18695	24.81360	167.46919	-717.45074	69.23131	217.04546	-672.01764	52.26654	159.00462	-791.23499	39.36050	174.32173	-711.56726	277.52118	877.13214	-604.93896	214.65672	819.94452	-716.39111	266.53012	747.13721	-742.98016	247.84944	643.88873	-699.37518	143.50751	579.06091	-742.85120	245.26718	577.82526	-687.01416	205.57111	537.13245	-781.24316	254.89821	502.65829	-769.30316	227.08165	204.92383	-661.28369	299.09756	156.70848	-624.84412	307.81995	157.62360	-556.67383	257.29739	164.54436	-592.39136	220.88173	174.06682	-712.67883	154.04713	217.94006	-674.72351	174.36337	158.95251	-795.51721	177.15161	183.49771	-528.06323	304.34155	146.45323	-517.70728	-73.04408	142.97505	-876.01013	-78.89476	141.28404	-882.57037	296.01700	144.51161	
220	4.380	-692.53278	87.87365	1849.19421	-710.58337	-85.06131	1537.00513	-720.44232	264.19360	1551.90833	-620.15430	96.52654	1357.90625	-608.11652	-10.78318	1053.30103	-632.63763	237.12848	1070.62878	-821.54144	84.85938	1056.92468	-676.62585	-75.17270	875.19153	-599.10266	-10.08930	808.11804	-696.76343	-63.63491	760.27161	-715.58649	-38.05579	616.69763	-699.22095	71.41980	574.94598	-721.86353	-34.74091	569.15509	-670.65656	14.63026	521.31958	-763.84888	-46.38854	488.41852	-758.46594	-18.98650	206.58839	-649.19751	-69.51349	160.76845	-607.73401	-77.08860	156.75848	-548.76605	-30.73642	162.47540	-597.24683	24.86792	167.42714	-717.62756	69.33945	217.02805	-672.02191	52.30994	159.05069	-791.24200	39.38363	174.31696	-712.62311	277.52591	877.10297	-605.98737	214.79948	819.94745	-717.31934	266.68103	747.11743	-743.84308	247.92075	643.89117	-700.15387	143.44112	579.11102	-743.55981	245.37906	577.78143	-687.70886	205.68425	537.14655	-781.78503	255.04970	502.49954	-769.37610	227.15347	204.87880	-661.29547	299.10565	156.70457	-624.83917	307.82565	157.61584	-556.65991	257.25595	164.47588	-592.37476	220.87505	174.10028	-712.69269	154.06514	217.99031	-674.69769	174.36223	159.00932	-795.53046	177.17732	183.52196	-528.07794	304.31952	146.43320	-517.65692	-73.09745	143.02295	-875.99207	-78.88165	141.29135	-882.54736	296.03177	144.52640	
221	4.400	-685.89764	87.83175	1849.05896	-708.59436	-85.32298	1536.79773	-717.86438	264.06909	1551.96619	-619.57275	96.30861	1357.28735	-609.59894	-10.79312	1052.97925	-633.58337	237.21144	1070.54419	-822.72437	84.90747	1057.32288	-677.99109	-75.13187	875.14954	-600.26978	-10.09929	808.15747	-697.84302	-63.64445	760.23462	-716.30261	-38.18669	616.66589	-699.91248	71.49895	574.97498	-722.56464	-34.68816	569.15631	-671.29834	14.72814	521.32294	-764.39075	-46.35528	488.27386	-758.53931	-18.92208	206.47643	-649.19855	-69.43376	160.76237	-607.76691	-77.07082	156.76353	-548.75195	-30.73657	162.47972	-597.31519	24.92513	167.43230	-717.76361	69.39529	217.01453	-672.03094	52.39936	159.14961	-791.25049	39.40516	174.30403	-713.76892	277.56061	877.05658	-607.13379	214.89333	819.94006	-718.34576	266.75702	747.03650	-744.76233	248.02478	643.89313	-700.98456	143.39049	579.08563	-744.29407	245.45836	577.70996	-688.40393	205.76773	537.17993	-782.30048	255.22987	502.37662	-769.45605	227.26945	204.82977	-661.30511	299.09604	156.70497	-624.82996	307.83691	157.60606	-556.63208	257.19833	164.43170	-592.35309	220.88647	174.15724	-712.71637	154.10663	218.00819	-674.66742	174.35718	159.08092	-795.54401	177.20543	183.54596	-528.05713	304.25046	146.45488	-517.61652	-73.15207	143.05772	-875.99030	-78.87685	141.31378	-882.54602	296.07367	144.55145	
222	4.420	-678.77075	87.76588	1848.78723	-706.48193	-85.58877	1536.55920	-715.17786	263.99258	1551.90356	-618.94812	96.05810	1356.57056	-611.18994	-10.82485	1052.67322	-634.67328	237.26421	1070.47534	-823.98932	84.92378	1057.70422	-679.37549	-75.15295	875.12158	-601.52606	-10.15071	808.19257	-699.02856	-63.68186	760.24939	-717.05658	-38.31403	616.64771	-700.68298	71.56578	575.06891	-723.29932	-34.71629	569.13745	-672.01056	14.76389	521.30255	-765.01318	-46.43423	488.19672	-758.60193	-18.91608	206.39186	-649.21722	-69.36248	160.75487	-607.78424	-77.06387	156.75435	-548.76147	-30.73455	162.46683	-597.37433	24.95827	167.46591	-717.85284	69.39241	217.02686	-672.05658	52.49052	159.23389	-791.26093	39.40913	174.27991	-714.98730	277.60049	876.98920	-608.37183	214.86569	819.90973	-719.45856	266.79285	746.93811	-745.69678	248.13631	643.84100	-701.88397	143.41121	578.97583	-745.09058	245.45732	577.59540	-689.10950	205.77747	537.22223	-782.89001	255.35046	502.25372	-769.51367	227.37820	204.77113	-661.30377	299.10129	156.72771	-624.82074	307.85416	157.59061	-556.60840	257.14078	164.41951	-592.34021	220.90698	174.19255	-712.74707	154.18069	217.97542	-674.65094	174.35049	159.12756	-795.56409	177.22697	183.55170	-528.02728	304.17746	146.49550	-517.60425	-73.17597	143.04349	-876.00793	-78.88245	141.35071	-882.56378	296.10800	144.56485	
